<?xml version="1.0" encoding="utf-8" standalone="no"?><!DOCTYPE svg PUBLIC "-//W3C//DTD SVG 20010904//EN" "http://www.w3.org/TR/2001/REC-SVG-20010904/DTD/svg10.dtd"><svg xmlns="http://www.w3.org/2000/svg" width="396" height="308" xmlns:xlink="http://www.w3.org/1999/xlink"><source><![CDATA[Title: p2p-calling and p2p-channel
A->B: A calling call() and generating offer
B->A: B calling read() and substituting offer of A
A->B: A calling read() and substituting answer of B]]></source><desc>p2p-calling and p2p-channel</desc><defs><marker viewBox="0 0 5 5" markerWidth="5" markerHeight="5" orient="auto" refX="5" refY="2.5" id="markerArrowBlock"><path d="M 0 0 L 5 2.5 L 0 5 z"></path></marker><marker viewBox="0 0 9.6 16" markerWidth="4" markerHeight="16" orient="auto" refX="9.6" refY="8" id="markerArrowOpen"><path d="M 9.6,8 1.92,16 0,13.7 5.76,8 0,2.286 1.92,0 9.6,8 z"></path></marker></defs><g class="title"><path d="M10,10C158.4,0.4 211.7,19.6 250.1,10.0C251.4,36.2 248.7,25.0 250.1,43.0C192.4,52.6 192.4,33.4 10.0,43.0C11.3,35.1 8.7,37.7 10.0,10.0" stroke="#000000" fill="#ffffff" style="stroke-width: 2;"></path><text x="15" y="29" style="font-size: 16px; font-family: danielbd;"><tspan x="15">p2p-calling and p2p-channel</tspan></text></g><g class="actor"><path d="M10,53C33.8,54.3 22.1,51.7 43.1,53.0C44.8,85.7 41.4,71.9 43.1,96.0C35.1,94.7 37.1,97.3 10.0,96.0C11.7,63.3 8.3,85.7 10.0,53.0" stroke="#000000" fill="#ffffff" style="stroke-width: 2;"></path><text x="20" y="77" style="font-size: 16px; font-family: danielbd;"><tspan x="20">A</tspan></text></g><g class="actor"><path d="M10,245C19.3,243.7 24.9,246.3 43.1,245.0C44.8,269.2 41.4,255.3 43.1,288.0C15.3,289.3 28.5,286.7 10.0,288.0C8.3,257.9 11.7,265.0 10.0,245.0" stroke="#000000" fill="#ffffff" style="stroke-width: 2;"></path><text x="20" y="269" style="font-size: 16px; font-family: danielbd;"><tspan x="20">A</tspan></text></g><path d="M26.5,96.0C20.6,221.2 32.5,206.9 26.5,245.0" stroke="#000000" fill="none" style="stroke-width: 2;"></path><g class="actor"><path d="M330.25,53C337.3,54.4 348.3,51.6 366.5,53.0C364.7,59.9 368.2,79.4 366.5,96.0C357.8,97.4 360.7,94.6 330.3,96.0C328.5,85.7 332.0,76.9 330.3,53.0" stroke="#000000" fill="#ffffff" style="stroke-width: 2;"></path><text x="340.25" y="77" style="font-size: 16px; font-family: danielbd;"><tspan x="340.25">B</tspan></text></g><g class="actor"><path d="M330.25,245C354.3,246.4 352.8,243.6 366.5,245.0C364.7,275.2 368.2,255.3 366.5,288.0C360.3,289.4 354.9,286.6 330.3,288.0C328.5,251.9 332.0,255.3 330.3,245.0" stroke="#000000" fill="#ffffff" style="stroke-width: 2;"></path><text x="340.25" y="269" style="font-size: 16px; font-family: danielbd;"><tspan x="340.25">B</tspan></text></g><path d="M348.4,96.0C342.4,144.6 354.3,189.5 348.4,245.0" stroke="#000000" fill="none" style="stroke-width: 2;"></path><g class="signal"><text x="73.5234375" y="123.5" style="font-size: 16px; font-family: danielbd;"><tspan x="73.5234375">A calling call() and generating offer</tspan></text><path d="M26.5,139.0C245.3,151.9 296.9,126.1 348.4,139.0" stroke="#000000" fill="none" style="stroke-width: 2; marker-end: url(&quot;#markerArrowBlock&quot;);"></path></g><g class="signal"><text x="41.3984375" y="166.5" style="font-size: 16px; font-family: danielbd;"><tspan x="41.3984375">B calling read() and substituting offer of A</tspan></text><path d="M348.4,182.0C238.4,169.1 262.3,194.9 26.5,182.0" stroke="#000000" fill="none" style="stroke-width: 2; marker-end: url(&quot;#markerArrowBlock&quot;);"></path></g><g class="signal"><text x="36.5390625" y="209.5" style="font-size: 16px; font-family: danielbd;"><tspan x="36.5390625">A calling read() and substituting answer of B</tspan></text><path d="M26.5,225.0C103.8,237.9 257.7,212.1 348.4,225.0" stroke="#000000" fill="none" style="stroke-width: 2; marker-end: url(&quot;#markerArrowBlock&quot;);"></path></g></svg>