<?xml version="1.0" encoding="utf-8" standalone="no"?><!DOCTYPE svg PUBLIC "-//W3C//DTD SVG 20010904//EN" "http://www.w3.org/TR/2001/REC-SVG-20010904/DTD/svg10.dtd"><svg xmlns="http://www.w3.org/2000/svg" width="268" height="437" xmlns:xlink="http://www.w3.org/1999/xlink"><source><![CDATA[Title: p2p-broadcast
A->>B: offer
B->>A: answer
A->>C: offer
C->>A: answer
A->>D: offer
D->>A: answer]]></source><desc>p2p-broadcast</desc><defs><marker viewBox="0 0 5 5" markerWidth="5" markerHeight="5" orient="auto" refX="5" refY="2.5" id="markerArrowBlock"><path d="M 0 0 L 5 2.5 L 0 5 z"></path></marker><marker viewBox="0 0 9.6 16" markerWidth="4" markerHeight="16" orient="auto" refX="9.6" refY="8" id="markerArrowOpen"><path d="M 9.6,8 1.92,16 0,13.7 5.76,8 0,2.286 1.92,0 9.6,8 z"></path></marker></defs><g class="title"><path d="M10,10C68.7,15.4 46.9,4.6 145.2,10.0C143.9,20.2 146.6,34.2 145.2,43.0C50.2,48.4 46.5,37.6 10.0,43.0C8.7,37.7 11.3,35.1 10.0,10.0" stroke="#000000" fill="#ffffff" style="stroke-width: 2;"></path><text x="15" y="29" style="font-size: 16px; font-family: danielbd;"><tspan x="15">p2p-broadcast</tspan></text></g><g class="actor"><path d="M10,53C23.4,51.7 35.1,54.3 43.1,53.0C41.4,75.0 44.8,78.3 43.1,96.0C17.9,94.7 35.1,97.3 10.0,96.0C8.3,63.3 11.7,59.9 10.0,53.0" stroke="#000000" fill="#ffffff" style="stroke-width: 2;"></path><text x="20" y="77" style="font-size: 16px; font-family: danielbd;"><tspan x="20">A</tspan></text></g><g class="actor"><path d="M10,374C18.4,375.3 28.8,372.7 43.1,374.0C44.8,384.3 41.4,406.7 43.1,417.0C37.8,415.7 28.2,418.3 10.0,417.0C8.3,393.3 11.7,391.8 10.0,374.0" stroke="#000000" fill="#ffffff" style="stroke-width: 2;"></path><text x="20" y="398" style="font-size: 16px; font-family: danielbd;"><tspan x="20">A</tspan></text></g><path d="M26.5,96.0C15.4,251.6 37.7,162.7 26.5,374.0" stroke="#000000" fill="none" style="stroke-width: 2;"></path><g class="actor"><path d="M87.609375,53C107.0,54.4 118.0,51.6 123.8,53.0C122.1,63.3 125.5,83.9 123.8,96.0C104.5,94.6 115.9,97.4 87.6,96.0C89.3,71.5 85.9,63.3 87.6,53.0" stroke="#000000" fill="#ffffff" style="stroke-width: 2;"></path><text x="97.609375" y="77" style="font-size: 16px; font-family: danielbd;"><tspan x="97.609375">B</tspan></text></g><g class="actor"><path d="M87.609375,374C115.1,375.4 96.3,372.6 123.8,374.0C122.1,382.7 125.5,399.8 123.8,417.0C115.1,415.6 107.3,418.4 87.6,417.0C89.3,390.5 85.9,395.0 87.6,374.0" stroke="#000000" fill="#ffffff" style="stroke-width: 2;"></path><text x="97.609375" y="398" style="font-size: 16px; font-family: danielbd;"><tspan x="97.609375">B</tspan></text></g><path d="M105.7,96.0C116.8,140.5 94.6,193.2 105.7,374.0" stroke="#000000" fill="none" style="stroke-width: 2;"></path><g class="actor"><path d="M143.8125,53C174.7,51.5 149.7,54.5 180.5,53.0C182.3,85.7 178.8,72.6 180.5,96.0C149.7,97.5 159.9,94.5 143.8,96.0C142.1,89.1 145.5,71.8 143.8,53.0" stroke="#000000" fill="#ffffff" style="stroke-width: 2;"></path><text x="153.8125" y="77" style="font-size: 16px; font-family: danielbd;"><tspan x="153.8125">C</tspan></text></g><g class="actor"><path d="M143.8125,374C170.8,372.5 149.7,375.5 180.5,374.0C182.3,407.2 178.8,403.0 180.5,417.0C156.6,418.5 152.6,415.5 143.8,417.0C142.1,383.9 145.5,410.1 143.8,374.0" stroke="#000000" fill="#ffffff" style="stroke-width: 2;"></path><text x="153.8125" y="398" style="font-size: 16px; font-family: danielbd;"><tspan x="153.8125">C</tspan></text></g><path d="M162.2,96.0C151.1,162.5 173.3,170.8 162.2,374.0" stroke="#000000" fill="none" style="stroke-width: 2;"></path><g class="actor"><path d="M200.546875,53C215.5,51.5 225.9,54.5 238.3,53.0C236.6,85.5 240.1,66.4 238.3,96.0C228.8,94.5 226.7,97.5 200.5,96.0C198.8,61.5 202.3,89.1 200.5,53.0" stroke="#000000" fill="#ffffff" style="stroke-width: 2;"></path><text x="210.546875" y="77" style="font-size: 16px; font-family: danielbd;"><tspan x="210.546875">D</tspan></text></g><g class="actor"><path d="M200.546875,374C208.0,375.5 214.9,372.5 238.3,374.0C240.1,390.8 236.6,384.3 238.3,417.0C220.7,418.5 225.5,415.5 200.5,417.0C198.8,410.1 202.3,406.7 200.5,374.0" stroke="#000000" fill="#ffffff" style="stroke-width: 2;"></path><text x="210.546875" y="398" style="font-size: 16px; font-family: danielbd;"><tspan x="210.546875">D</tspan></text></g><path d="M219.4,96.0C208.3,276.0 230.6,140.5 219.4,374.0" stroke="#000000" fill="none" style="stroke-width: 2;"></path><g class="signal"><text x="41.3984375" y="123.5" style="font-size: 16px; font-family: danielbd;"><tspan x="41.3984375">offer</tspan></text><path d="M26.5,139.0C45.5,142.2 86.7,135.8 105.7,139.0" stroke="#000000" fill="none" style="stroke-width: 2; marker-end: url(&quot;#markerArrowOpen&quot;);"></path></g><g class="signal"><text x="36.5390625" y="166.5" style="font-size: 16px; font-family: danielbd;"><tspan x="36.5390625">answer</tspan></text><path d="M105.7,182.0C45.5,178.8 86.3,185.2 26.5,182.0" stroke="#000000" fill="none" style="stroke-width: 2; marker-end: url(&quot;#markerArrowOpen&quot;);"></path></g><g class="signal"><text x="69.6328125" y="209.5" style="font-size: 16px; font-family: danielbd;"><tspan x="69.6328125">offer</tspan></text><path d="M26.5,225.0C58.6,230.4 59.1,219.6 162.2,225.0" stroke="#000000" fill="none" style="stroke-width: 2; marker-end: url(&quot;#markerArrowOpen&quot;);"></path></g><g class="signal"><text x="64.7734375" y="252.5" style="font-size: 16px; font-family: danielbd;"><tspan x="64.7734375">answer</tspan></text><path d="M162.2,268.0C48.2,273.4 89.7,262.6 26.5,268.0" stroke="#000000" fill="none" style="stroke-width: 2; marker-end: url(&quot;#markerArrowOpen&quot;);"></path></g><g class="signal"><text x="98.265625" y="295.5" style="font-size: 16px; font-family: danielbd;"><tspan x="98.265625">offer</tspan></text><path d="M26.5,311.0C173.1,303.3 144.2,318.7 219.4,311.0" stroke="#000000" fill="none" style="stroke-width: 2; marker-end: url(&quot;#markerArrowOpen&quot;);"></path></g><g class="signal"><text x="93.40625" y="338.5" style="font-size: 16px; font-family: danielbd;"><tspan x="93.40625">answer</tspan></text><path d="M219.4,354.0C174.0,346.3 104.5,361.7 26.5,354.0" stroke="#000000" fill="none" style="stroke-width: 2; marker-end: url(&quot;#markerArrowOpen&quot;);"></path></g></svg>